<svg xmlns="http://www.w3.org/2000/svg" width="741" height="179" viewBox="0 0 741 179"><defs><clipPath id="o3yaa"><path fill="#fff" d="M49.997 49.865l1.336-1.854 108.67 83.124-1.336 1.854z"/></clipPath><clipPath id="o3yab"><path fill="#fff" d="M132.665 109.993l17.216 12.678c.83-2.62 1.498-4.234 2.93-6.05-.655 4.468.473 7.877 2.193 11.567-4.157-.739-7.957-.703-12.417.813 1.73-1.847 3.042-2.765 5.645-4.283L130.99 112.02z"/></clipPath><clipPath id="o3yac"><path fill="#fff" d="M657.956 122.279l19.424 8.936c.282-2.734.611-4.45 1.647-6.519.26 4.509 2.056 7.62 4.485 10.886-4.22.117-7.934.92-11.996 3.307 1.321-2.159 2.42-3.324 4.663-5.337l-19.453-8.949z"/></clipPath><clipPath id="o3yad"><path fill="#fff" d="M445.607 60.318l20.503-6.062c-1.586-2.243-2.469-3.751-3.051-5.99 3.164 3.222 6.563 4.381 10.543 5.24-3.1 2.867-5.367 5.917-6.853 10.387-.427-2.494-.366-4.095-.004-7.086l-20.533 6.07z"/></clipPath><clipPath id="o3yae"><path fill="#fff" d="M190.735 141.5l-.42-1.917L483.265 48.5l.42 1.916z"/></clipPath><clipPath id="o3yaf"><path fill="#fff" d="M526.464 59.746l.879-1.796 164.193 80.303-.879 1.797z"/></clipPath></defs><g><g><path fill="#001a5e" d="M503.5 15c16.845 0 30.5 13.655 30.5 30.5 0 16.844-13.655 30.5-30.5 30.5S473 62.344 473 45.5c0-16.845 13.655-30.5 30.5-30.5z"/></g><g><path fill="#001a5e" d="M710.5 118c16.845 0 30.5 13.655 30.5 30.5 0 16.844-13.655 30.5-30.5 30.5S680 165.344 680 148.5c0-16.845 13.655-30.5 30.5-30.5z"/></g><g><path fill="#001a5e" d="M30.5 0C47.345 0 61 13.655 61 30.5 61 47.344 47.345 61 30.5 61S0 47.344 0 30.5C0 13.655 13.655 0 30.5 0z"/></g><g><path fill="#001a5e" d="M176.5 118c16.845 0 30.5 13.655 30.5 30.5 0 16.844-13.655 30.5-30.5 30.5S146 165.344 146 148.5c0-16.845 13.655-30.5 30.5-30.5z"/></g><g><g><text fill="#f5f7fc" dominant-baseline="text-before-edge" font-family="'MyriadPro','MyriadPro-Regular'" font-size="36" font-style="none" font-weight="400" transform="translate(498 32)"><tspan style="font-kerning:normal">3</tspan></text></g></g><g><g><text fill="#f5f7fc" dominant-baseline="text-before-edge" font-family="'MyriadPro','MyriadPro-Regular'" font-size="36" font-style="none" font-weight="400" transform="translate(23 20)"><tspan style="font-kerning:normal">1</tspan></text></g></g><g><g><text fill="#f5f7fc" dominant-baseline="text-before-edge" font-family="'MyriadPro','MyriadPro-Regular'" font-size="36" font-style="none" font-weight="400" transform="translate(169 136)"><tspan style="font-kerning:normal">2</tspan></text></g></g><g><g><text fill="#f5f7fc" dominant-baseline="text-before-edge" font-family="'MyriadPro','MyriadPro-Regular'" font-size="36" font-style="none" font-weight="400" transform="translate(701 136)"><tspan style="font-kerning:normal">4</tspan></text></g></g><g><path fill="none" stroke="#001a5e" stroke-miterlimit="20" stroke-width="10" d="M49.997 49.865v0l1.336-1.854v0l108.67 83.124v0l-1.336 1.854v0z" clip-path="url(&quot;#o3yaa&quot;)"/></g><g><path fill="none" stroke="#001a5e" stroke-miterlimit="20" stroke-width="10" d="M132.665 109.993v0l17.216 12.678c.83-2.62 1.498-4.234 2.93-6.05-.655 4.468.473 7.877 2.193 11.567-4.157-.739-7.957-.703-12.417.813 1.73-1.847 3.042-2.765 5.645-4.283L130.99 112.02v0z" clip-path="url(&quot;#o3yab&quot;)"/></g><g><path fill="none" stroke="#001a5e" stroke-miterlimit="20" stroke-width="10" d="M657.956 122.279v0l19.424 8.936c.282-2.734.611-4.45 1.647-6.519.26 4.509 2.056 7.62 4.485 10.886-4.22.117-7.934.92-11.996 3.307 1.321-2.159 2.42-3.324 4.663-5.337l-19.453-8.949v0z" clip-path="url(&quot;#o3yac&quot;)"/></g><g><path fill="none" stroke="#001a5e" stroke-miterlimit="20" stroke-width="10" d="M445.607 60.318v0l20.503-6.062c-1.586-2.243-2.469-3.751-3.051-5.99 3.164 3.222 6.563 4.381 10.543 5.24-3.1 2.867-5.367 5.917-6.853 10.387-.427-2.494-.366-4.095-.004-7.086l-20.533 6.07v0z" clip-path="url(&quot;#o3yad&quot;)"/></g><g><path fill="none" stroke="#001a5e" stroke-miterlimit="20" stroke-width="10" d="M190.735 141.5v0l-.42-1.917v0L483.265 48.5v0l.42 1.916v0z" clip-path="url(&quot;#o3yae&quot;)"/></g><g><path fill="none" stroke="#001a5e" stroke-miterlimit="20" stroke-width="10" d="M526.464 59.746v0l.879-1.796v0l164.193 80.303v0l-.879 1.797v0z" clip-path="url(&quot;#o3yaf&quot;)"/></g></g></svg>